<?xml version="1.0" standalone="no"?>
<!DOCTYPE svg PUBLIC "-//W3C//DTD SVG 20010904//EN"
 "http://www.w3.org/TR/2001/REC-SVG-20010904/DTD/svg10.dtd">
<svg version="1.0" xmlns="http://www.w3.org/2000/svg"
 width="934.000000pt" height="736.000000pt" viewBox="0 0 934.000000 736.000000"
 preserveAspectRatio="xMidYMid meet">

<g transform="translate(0.000000,736.000000) scale(0.100000,-0.100000)"
fill="#000000" stroke="none">
<path d="M4945 6548 c-128 -24 -268 -125 -333 -239 -65 -116 -65 -116 -70
-641 -3 -405 -6 -478 -18 -478 -12 0 -14 -48 -14 -305 0 -262 2 -305 15 -305
13 0 15 -208 17 -1682 3 -1602 4 -1686 21 -1738 46 -137 140 -247 262 -305
l73 -35 1073 2 1074 3 60 30 c122 62 223 185 257 314 16 61 17 233 17 2504 1
2706 6 2515 -65 2634 -65 107 -153 181 -270 225 l-59 23 -995 2 c-602 0 -1015
-3 -1045 -9z m310 -161 c-11 -70 31 -149 97 -183 41 -21 1166 -21 1207 1 65
33 108 120 95 191 l-7 36 159 -4 c147 -3 163 -5 216 -30 112 -52 195 -159 217
-282 15 -84 15 -4788 0 -4872 -22 -123 -105 -230 -217 -282 l-57 -27 -997 -3
c-990 -2 -998 -2 -1060 19 -115 38 -199 121 -239 234 -19 53 -19 108 -19 2495
0 2370 1 2442 19 2494 40 114 122 195 236 235 50 17 85 20 208 21 l148 0 -6
-43z"/>
<path d="M5985 2665 l-97 -105 -31 39 -30 40 -33 -26 c-21 -16 -31 -30 -26
-38 19 -32 108 -144 113 -142 3 1 65 65 138 141 l132 139 -27 29 c-15 15 -31
28 -35 28 -3 0 -50 -47 -104 -105z"/>
<path d="M5048 1826 c-60 -27 -108 -52 -108 -55 1 -5 155 -79 202 -96 13 -5
17 0 20 22 l3 28 288 3 287 2 0 45 0 45 -289 0 -290 0 -3 28 -3 28 -107 -50z"/>
<path d="M6670 1850 l0 -30 -285 0 -285 0 0 -45 0 -45 284 0 285 0 3 -33 3
-34 115 54 115 55 -95 45 c-146 69 -140 68 -140 33z"/>
<path d="M2768 4610 c-103 -31 -142 -102 -140 -255 1 -55 7 -125 14 -155 12
-48 17 -55 39 -58 21 -3 28 3 36 30 l11 33 1 -32 1 -33 200 0 200 0 2 53 c1
28 0 78 -1 110 -3 52 -1 57 18 57 18 0 20 4 15 28 -23 111 -73 168 -180 206
-73 27 -160 33 -216 16z"/>
<path d="M2934 3457 l-192 -21 -6 -50 c-3 -28 -6 -66 -6 -83 0 -18 -3 -33 -6
-33 -4 0 -34 20 -68 44 -47 33 -74 45 -116 50 -30 4 -69 9 -87 12 -28 5 -32 3
-38 -25 -12 -56 0 -68 128 -132 67 -34 123 -62 124 -63 1 -1 -5 -26 -14 -56
-13 -46 -14 -64 -4 -113 8 -37 9 -63 3 -70 -24 -30 -134 -286 -153 -355 -11
-42 -50 -173 -86 -291 l-65 -215 -62 -70 c-179 -205 -260 -359 -276 -521 -5
-49 -12 -100 -16 -112 -5 -18 -1 -23 21 -29 15 -4 24 -12 22 -19 -54 -139 -92
-216 -106 -213 -11 3 -24 -15 -44 -61 -15 -35 -24 -68 -20 -72 10 -9 320 -139
332 -139 5 0 12 7 15 16 23 60 -18 138 -92 175 -29 14 -55 29 -58 32 -9 8 104
207 117 207 6 0 19 -5 29 -10 16 -9 24 -3 48 33 61 88 454 773 611 1065 90
166 166 302 170 302 15 0 63 -696 65 -948 2 -150 7 -280 14 -312 13 -62 41
-130 53 -130 5 0 11 -22 15 -49 5 -41 10 -50 28 -53 19 -3 21 -10 24 -91 3
-82 1 -89 -18 -94 -18 -5 -20 -13 -20 -74 l0 -69 190 0 c210 0 206 -1 175 63
-24 49 -61 71 -130 75 -33 2 -65 5 -71 7 -7 2 -7 29 0 91 l11 89 33 3 c31 3
32 5 32 50 0 26 10 94 21 152 23 111 25 171 22 615 -1 121 2 364 6 540 4 187
3 336 -2 358 -9 34 -7 39 17 58 35 27 36 81 2 112 -16 15 -42 78 -82 201 l-59
178 -49 -6 c-46 -5 -52 -3 -78 26 -15 17 -28 35 -28 40 0 12 -59 8 -276 -15z"/>
</g>
</svg>
