<svg width="1440" height="1024" viewBox="0 0 1440 1024" fill="none" xmlns="http://www.w3.org/2000/svg">
<rect width="1440" height="1024" fill="white"/>
<g clip-path="url(#clip0)">
<path d="M425.223 79H1028.09C1037.21 79 1045.95 82.6212 1052.4 89.067C1058.84 95.5128 1062.46 104.255 1062.46 113.371V151.32H390.852V113.371C390.852 104.255 394.474 95.5128 400.919 89.067C407.365 82.6212 416.108 79 425.223 79V79Z" fill="#1C85E8"/>
<path d="M390.852 151.32H1062.46V760.098C1062.46 768.349 1060.84 776.52 1057.68 784.143C1054.52 791.767 1049.9 798.693 1044.06 804.528C1038.23 810.363 1031.3 814.991 1023.68 818.149C1016.05 821.306 1007.88 822.932 999.63 822.932H453.686C445.435 822.932 437.264 821.306 429.641 818.149C422.017 814.991 415.09 810.363 409.256 804.528C403.421 798.693 398.793 791.767 395.635 784.143C392.478 776.52 390.852 768.349 390.852 760.098V151.32Z" fill="url(#paint0_linear)"/>
<path d="M829.666 583.162H645.453V672.625H829.666V583.162Z" fill="#FFCCB3"/>
<path d="M644.368 638.316C622.764 659.573 614.264 764.26 615.402 822.932H872.572C872.572 822.932 872.11 694.985 852.613 651.869C834.683 612.218 804.879 670.708 644.368 638.316Z" fill="#1F2D49"/>
<path d="M798.713 176.014C798.713 176.014 820.051 151.675 861.469 148.134C902.888 144.593 915.281 180.87 913.511 203.158C911.74 225.446 879.281 271.479 885.773 290.955C892.265 310.43 861.738 300.988 858.411 262.036C855.084 223.085 842.69 168.79 809.051 188.265L798.713 176.014Z" fill="#080B09"/>
<path d="M805.19 164.621C805.19 164.621 810.293 161.664 813.988 168.562C817.684 175.46 824.586 189.467 815.838 193.18C807.09 196.894 805.19 164.621 805.19 164.621Z" fill="#1C85E8"/>
<path d="M686.876 388.941C686.876 388.941 719.963 426.078 708.959 437.99C687.165 462.472 629.198 508.485 610.205 523.716C609.385 524.344 608.449 524.803 607.45 525.067C606.452 525.332 605.411 525.396 604.388 525.256C603.365 525.116 602.379 524.775 601.489 524.252C600.598 523.729 599.819 523.036 599.198 522.211L554.285 463.162C552.529 460.889 551.71 458.029 551.996 455.17C552.283 452.312 553.653 449.672 555.825 447.792L642.822 372.773L686.876 388.941Z" fill="#1C85E8"/>
<path d="M634.641 436.154C634.641 436.154 593.407 460.662 589.691 509.904L597.903 520.454C597.903 520.454 603.059 529.44 610.205 523.716C617.351 517.992 650.405 491.515 650.405 491.515L634.641 436.154Z" fill="#0E66AF"/>
<path d="M673.195 454.822C698.915 454.822 719.766 433.972 719.766 408.251C719.766 382.531 698.915 361.68 673.195 361.68C647.475 361.68 626.624 382.531 626.624 408.251C626.624 433.972 647.475 454.822 673.195 454.822Z" fill="#1C85E8"/>
<path d="M551.925 554.235L511.226 500.347L549.754 470.436L555.793 465.574L598.01 520.783L590.659 526.07L551.925 554.235Z" fill="#FFCCB3"/>
<path d="M590.658 526.07C579.756 511.474 559.255 482.947 549.754 470.436L555.793 465.574L597.903 520.454L590.658 526.07Z" fill="#FF967C"/>
<path d="M530.957 561.71C549.628 561.71 564.764 546.574 564.764 527.903C564.764 509.231 549.628 494.095 530.957 494.095C512.285 494.095 497.149 509.231 497.149 527.903C497.149 546.574 512.285 561.71 530.957 561.71Z" fill="#FFCCB3"/>
<path d="M559.582 509.716C559.582 509.716 450.526 349.56 445.485 335.959C440.579 322.676 414.82 354.639 414.82 354.639L499.223 538.789L559.582 509.716Z" fill="#FFCCB3"/>
<path d="M709.72 286.372L696.61 377.776C696.61 377.776 693.168 389.908 708.442 391.744C723.716 393.581 756.284 389.477 767.915 377.082C779.547 364.687 775.478 358.546 775.478 358.546L750.809 259.336L709.72 286.372Z" fill="#FFCCB3"/>
<path d="M707.896 298.2L739.965 286.873L700.235 345.757L707.896 298.2Z" fill="#FF967C"/>
<path d="M673.437 173.47C673.437 173.47 645.924 238.115 660.263 282.421C669.614 311.316 689.978 316.511 736.616 294.857C779.379 275.003 790.486 259.984 790.486 259.984L796.792 187.921C796.792 187.921 701.378 115.851 673.437 173.47Z" fill="#FFCCB3"/>
<path d="M696.378 351.496C696.378 351.496 661.134 361.288 653.982 367.01C646.829 372.732 641.627 419.241 631.056 442.214C615.406 476.224 605.274 494.317 631.566 531.692C647.423 554.235 642.031 611.544 642.031 611.544H835.097C829.247 498.857 855.132 366.018 855.132 366.018L767.998 345.94C748.352 349.327 696.378 351.496 696.378 351.496Z" fill="#1C85E8"/>
<path d="M690.215 353.314C690.215 353.314 692.821 335.6 701.15 334.353C709.479 333.106 760.376 325.45 768.293 328.784C776.209 332.117 785.793 353.314 785.793 353.314C785.793 353.314 769.543 392.949 746.21 395.032C722.877 397.116 682.717 389.923 686.964 375.186C691.211 360.45 690.215 353.314 690.215 353.314Z" fill="#1C85E8"/>
<path d="M674.364 358.699C674.364 358.699 679.994 392.884 710.571 392.345C741.148 391.805 785.581 345.94 785.581 345.94" stroke="white" stroke-width="1.35709" stroke-miterlimit="10"/>
<path d="M812.9 408.251C812.9 408.251 782.516 428.339 791.467 448.609C801.531 471.4 801.444 530.097 772.561 533.776C721.026 540.339 743.417 549.351 767.245 555.11C791.074 560.868 781.318 560.874 781.318 585.56C781.318 603.129 836.531 618.362 835.097 604.166C825.496 509.187 865.403 449.046 812.9 408.251Z" fill="#0E66AF"/>
<path d="M670.985 268.58L696.578 269.846C696.487 270.161 696.348 270.592 696.147 271.099C695.712 272.199 694.99 273.648 693.845 275.051C691.574 277.833 687.608 280.477 680.757 279.784C676.43 278.955 673.97 276.046 672.577 273.292C671.88 271.913 671.457 270.582 671.209 269.596C671.107 269.191 671.034 268.846 670.985 268.58Z" fill="#E56441" stroke="#E56441"/>
<path d="M672.674 226.084C673.743 222.119 672.429 218.317 669.739 217.591C667.049 216.865 664.001 219.491 662.931 223.456C661.862 227.421 663.176 231.223 665.866 231.949C668.556 232.674 671.604 230.049 672.674 226.084Z" fill="#080B09"/>
<path d="M712.267 237.374C713.336 233.409 712.023 229.607 709.332 228.881C706.642 228.156 703.594 230.781 702.524 234.746C701.455 238.711 702.769 242.513 705.459 243.239C708.15 243.965 711.197 241.339 712.267 237.374Z" fill="#080B09"/>
<path d="M662.662 205.604L682.789 211.39C683.139 211.46 683.503 211.4 683.813 211.222C684.123 211.044 684.357 210.76 684.474 210.422C684.566 209.787 684.528 209.14 684.364 208.52C684.199 207.899 683.91 207.319 683.514 206.814C683.119 206.308 682.625 205.888 682.063 205.579C681.501 205.27 680.882 205.077 680.243 205.014L662.956 203.195C661.63 202.837 661.004 205.157 662.662 205.604Z" fill="#080B09"/>
<path d="M731.473 222.809L704.178 217.224C704.425 216.412 704.839 215.66 705.394 215.018C705.949 214.375 706.632 213.856 707.4 213.494C708.167 213.132 709.002 212.934 709.851 212.914C710.7 212.894 711.543 213.052 712.327 213.378L732.251 221.242C732.913 221.42 732.466 223.078 731.473 222.809Z" fill="#080B09"/>
<path d="M684.846 227.218L671.9 244.652L676.775 251.545" stroke="#E56441" stroke-width="2.23881" stroke-linecap="round"/>
<path d="M708.922 417.424C711.429 417.424 713.461 411.81 713.461 404.884C713.461 397.959 711.429 392.344 708.922 392.344C706.415 392.344 704.383 397.959 704.383 404.884C704.383 411.81 706.415 417.424 708.922 417.424Z" fill="white"/>
<path d="M918.131 589.957L850.827 595.472L839.337 546.695L825.496 509.187L896.327 500.71L905.182 542.688L918.131 589.957Z" fill="#FFCCB3"/>
<path d="M898.718 512.046L901.201 523.817L831.449 525.318L826.86 512.884L898.718 512.046Z" fill="#FF967C"/>
<path d="M843.552 457.697C869.272 457.697 890.122 436.847 890.122 411.126C890.122 385.406 869.272 364.555 843.552 364.555C817.831 364.555 796.981 385.406 796.981 411.126C796.981 436.847 817.831 457.697 843.552 457.697Z" fill="#1C85E8"/>
<path d="M834.57 389.232C834.57 389.232 883.651 381.175 887.819 396.848C896.823 428.364 907.892 478.959 910.584 503.156C910.675 504.184 910.561 505.221 910.25 506.206C909.939 507.19 909.435 508.104 908.769 508.893C908.103 509.682 907.287 510.332 906.369 510.804C905.451 511.276 904.448 511.562 903.418 511.645L829.499 517.955C826.638 518.22 823.785 517.381 821.524 515.608C819.263 513.835 817.767 511.264 817.343 508.423L797.324 417.778L834.57 389.232Z" fill="#1C85E8"/>
<path d="M690.59 167.325C690.59 167.325 692.331 198.725 718.931 213.941C718.931 213.941 726.71 238.024 755.741 243.688C755.741 243.688 754.026 221.553 767.863 221.787C791.359 222.185 779.802 257.826 763.917 263.673C753.121 267.647 746.619 281.751 762.644 313.894C799.441 300.77 825.319 247.766 815.173 188.961C807.049 141.869 748.668 126.491 736.673 128.025C736.673 128.025 686.859 110.816 660.63 158.013C638.208 198.359 659.148 222.438 659.148 222.438L671.098 186.53C671.098 186.53 676.089 190.035 690.59 167.325Z" fill="#080B09"/>
<path d="M918.38 706.315H740.114C736.666 706.315 733.337 705.056 730.751 702.775C728.166 700.493 726.502 697.346 726.074 693.924L709.62 562.605C709.37 560.614 709.547 558.592 710.139 556.675C710.73 554.757 711.723 552.987 713.051 551.482C714.379 549.978 716.011 548.773 717.841 547.948C719.67 547.122 721.654 546.695 723.66 546.695H934.834C936.84 546.695 938.824 547.122 940.653 547.948C942.483 548.773 944.115 549.978 945.443 551.482C946.771 552.987 947.764 554.757 948.355 556.675C948.947 558.592 949.124 560.614 948.874 562.605L932.42 693.924C931.991 697.346 930.328 700.493 927.743 702.775C925.157 705.056 921.828 706.315 918.38 706.315Z" fill="url(#paint1_linear)"/>
<path d="M829.666 636.569C836.577 636.569 842.179 630.967 842.179 624.057C842.179 617.146 836.577 611.544 829.666 611.544C822.756 611.544 817.154 617.146 817.154 624.057C817.154 630.967 822.756 636.569 829.666 636.569Z" fill="white"/>
<path d="M419.455 365.16L408.713 344.551C408.713 344.551 370.729 322.823 366.327 314.968C361.924 307.111 360.194 284.681 367.987 278.938C367.987 278.938 337.682 256.176 342.841 251.564C347.983 246.618 407.524 290.849 407.524 290.849C407.524 290.849 400.275 258.263 411.291 256.736C414.275 269.366 419.387 281.396 426.408 292.31C438.006 310.242 439.435 326.303 439.435 326.303L453.104 352.537L419.455 365.16Z" fill="#FFCCB3"/>
<path d="M370.03 279.514L388.383 291.08" stroke="#FF967C" stroke-width="2.87188" stroke-linecap="round" stroke-linejoin="round"/>
<path d="M367.294 292.746L382.87 302.428" stroke="#FF967C" stroke-width="2.87188" stroke-linecap="round" stroke-linejoin="round"/>
<path d="M370.321 307.051L380.71 313.617" stroke="#FF967C" stroke-width="2.87188" stroke-linecap="round" stroke-linejoin="round"/>
<path d="M441.823 123.907C446.654 123.907 450.57 119.991 450.57 115.16C450.57 110.329 446.654 106.413 441.823 106.413C436.992 106.413 433.076 110.329 433.076 115.16C433.076 119.991 436.992 123.907 441.823 123.907Z" fill="white"/>
<path d="M477.151 123.907C481.982 123.907 485.898 119.991 485.898 115.16C485.898 110.329 481.982 106.413 477.151 106.413C472.32 106.413 468.404 110.329 468.404 115.16C468.404 119.991 472.32 123.907 477.151 123.907Z" fill="white"/>
<path d="M510.345 123.907C515.176 123.907 519.092 119.991 519.092 115.16C519.092 110.329 515.176 106.413 510.345 106.413C505.514 106.413 501.598 110.329 501.598 115.16C501.598 119.991 505.514 123.907 510.345 123.907Z" fill="white"/>
<path opacity="0.7" d="M247.597 114.088C282.764 144.08 375.507 212.464 493.295 215.731C495.704 215.803 497.989 216.812 499.666 218.543C501.343 220.273 502.279 222.59 502.276 225V411.633C502.277 414.014 501.363 416.304 499.722 418.029C498.081 419.754 495.839 420.782 493.461 420.9C458.047 422.662 323.754 422.457 234.77 327.188C233.183 325.477 232.305 323.227 232.312 320.894V121.156C232.311 119.385 232.817 117.65 233.771 116.157C234.725 114.665 236.086 113.476 237.694 112.733C239.301 111.989 241.089 111.721 242.844 111.962C244.599 112.202 246.248 112.939 247.597 114.088Z" fill="#FEBB94"/>
<path d="M260.937 169.086C260.937 169.086 288.688 196.051 326.62 212.801" stroke="white" stroke-width="7.4328" stroke-miterlimit="10" stroke-linecap="round"/>
<path opacity="0.4" d="M260.937 201.777C260.937 201.777 299.559 237.802 349.8 251.178" stroke="white" stroke-width="7.4328" stroke-miterlimit="10" stroke-linecap="round"/>
<path d="M255.184 321.315V243.36L282.515 262.918V342.757L255.184 321.315Z" fill="white"/>
<path d="M301.315 352.815V297.272L328.646 313.617V368.524L301.315 352.815Z" fill="white"/>
<path d="M418.183 396.296V340.753L390.852 337.012V391.919L418.183 396.296Z" fill="white"/>
<path d="M463.076 398.674V301.428H435.745V398.039L463.076 398.674Z" fill="white"/>
<path d="M346.084 377.151V351.757L373.415 359.443V387.049L346.084 377.151Z" fill="white"/>
<g opacity="0.7">
<path d="M316.048 500.814C351.215 526.636 443.958 594.022 561.746 583.32C562.891 583.186 564.053 583.299 565.151 583.653C566.249 584.007 567.258 584.593 568.11 585.371C568.962 586.149 569.637 587.101 570.088 588.163C570.539 589.225 570.757 590.371 570.727 591.524V778.158C570.667 780.628 569.758 783.002 568.152 784.88C566.547 786.759 564.343 788.026 561.912 788.47C526.497 794.432 379.206 791.488 303.22 715.436C302.434 714.647 301.812 713.711 301.39 712.68C300.968 711.65 300.755 710.546 300.763 709.433V509.695C300.763 501.785 310.029 496.394 316.048 500.814Z" fill="#96BAFD"/>
</g>
<path d="M882.081 700.957C882.081 700.957 891.503 701.739 890.084 706.494C888.664 711.248 880.253 709.054 872.572 713.808C864.892 718.563 834.526 721.956 819.359 719.428C804.191 716.9 799.978 700.957 799.978 700.957C799.978 700.957 797.442 685.831 824.234 684.278C851.025 682.725 863.494 691.322 868.154 700.641L882.081 700.957Z" fill="#FFCCB3"/>
<path d="M811.368 686.629L817.154 702.192" stroke="#E56441" stroke-width="2.23881" stroke-linecap="round"/>
<path d="M826.354 684.095L832.14 699.658" stroke="#E56441" stroke-width="2.23881" stroke-linecap="round"/>
<path d="M842.179 685.413L847.965 700.976" stroke="#E56441" stroke-width="2.23881" stroke-linecap="round"/>
<path opacity="0.7" d="M1167.2 515.997C1118.15 557.833 988.784 653.222 824.482 657.779C821.122 657.88 817.934 659.287 815.594 661.702C813.255 664.116 811.949 667.347 811.954 670.708V931.043C811.952 934.364 813.228 937.558 815.517 939.965C817.806 942.371 820.933 943.805 824.249 943.969C873.649 946.427 1060.97 946.141 1185.1 813.251C1187.31 810.864 1188.54 807.726 1188.53 804.471V525.857C1188.53 523.386 1187.82 520.967 1186.49 518.884C1185.16 516.802 1183.26 515.144 1181.02 514.107C1178.78 513.07 1176.28 512.697 1173.84 513.032C1171.39 513.367 1169.09 514.396 1167.2 515.997Z" fill="#1C85E8"/>
<path d="M1148.6 592.714C1148.6 592.714 1109.89 630.328 1056.98 653.693" stroke="white" stroke-width="10.368" stroke-miterlimit="10" stroke-linecap="round"/>
<path opacity="0.4" d="M1148.6 638.316C1148.6 638.316 1094.72 688.566 1024.64 707.225" stroke="white" stroke-width="10.368" stroke-miterlimit="10" stroke-linecap="round"/>
<path d="M1123.44 433.638H973.698C970.76 433.638 967.851 434.217 965.137 435.341C962.423 436.465 959.957 438.113 957.879 440.19C955.802 442.268 954.154 444.734 953.03 447.448C951.906 450.162 951.327 453.071 951.327 456.009V502.336C951.327 505.274 951.906 508.183 953.03 510.897C954.154 513.612 955.802 516.078 957.879 518.155C959.957 520.233 962.423 521.881 965.137 523.005C967.851 524.129 970.761 524.708 973.698 524.708H1026.86L1042.54 540.394C1044.01 541.863 1046 542.688 1048.08 542.688C1050.16 542.688 1052.15 541.863 1053.62 540.394L1069.3 524.708H1123.44C1129.37 524.708 1135.07 522.351 1139.26 518.155C1143.46 513.96 1145.81 508.269 1145.81 502.336V456.009C1145.81 450.076 1143.46 444.386 1139.26 440.19C1135.07 435.995 1129.37 433.638 1123.44 433.638Z" fill="white"/>
<path d="M1014.85 464.478C1012.85 462.631 1010.23 461.606 1007.51 461.606C1004.79 461.606 1002.17 462.631 1000.17 464.478L997.406 467.031L994.64 464.478C992.642 462.631 990.021 461.606 987.3 461.606C984.579 461.606 981.958 462.631 979.959 464.478C978.904 465.433 978.061 466.599 977.483 467.9C976.906 469.201 976.608 470.608 976.608 472.031C976.608 473.454 976.906 474.862 977.483 476.163C978.061 477.464 978.904 478.629 979.959 479.584L997.406 495.755L1014.85 479.797C1015.95 478.848 1016.84 477.672 1017.44 476.351C1018.05 475.029 1018.36 473.592 1018.36 472.138C1018.36 470.684 1018.05 469.247 1017.44 467.925C1016.84 466.603 1015.95 465.427 1014.85 464.478Z" fill="#F4608A"/>
<path d="M1034.33 473.927C1034.48 471.968 1035.24 470.434 1036.6 469.326C1037.96 468.219 1039.73 467.665 1041.9 467.665C1043.35 467.665 1044.6 467.931 1045.64 468.464C1046.71 468.975 1047.51 469.678 1048.04 470.572C1048.59 471.467 1048.87 472.479 1048.87 473.608C1048.87 474.928 1048.49 476.068 1047.72 477.026C1046.97 477.985 1045.99 478.603 1044.78 478.88V479.039C1046.16 479.38 1047.26 480.051 1048.07 481.052C1048.88 482.053 1049.29 483.363 1049.29 484.982C1049.29 486.196 1049.01 487.293 1048.45 488.273C1047.9 489.232 1047.07 489.988 1045.96 490.542C1044.85 491.095 1043.52 491.372 1041.97 491.372C1039.71 491.372 1037.86 490.787 1036.41 489.615C1034.96 488.422 1034.15 486.74 1033.98 484.567H1036.79C1036.94 485.845 1037.46 486.889 1038.36 487.698C1039.25 488.507 1040.45 488.912 1041.94 488.912C1043.43 488.912 1044.56 488.529 1045.32 487.762C1046.11 486.974 1046.51 485.962 1046.51 484.727C1046.51 483.129 1045.97 481.979 1044.91 481.276C1043.84 480.573 1042.23 480.222 1040.08 480.222H1039.35V477.793H1040.12C1042.07 477.772 1043.56 477.452 1044.56 476.835C1045.56 476.196 1046.06 475.216 1046.06 473.895C1046.06 472.766 1045.69 471.861 1044.94 471.179C1044.22 470.498 1043.17 470.157 1041.81 470.157C1040.49 470.157 1039.42 470.498 1038.61 471.179C1037.8 471.861 1037.32 472.777 1037.18 473.927H1034.33ZM1056.69 487.187L1053.12 495.782H1051.17L1053.5 487.187H1056.69ZM1074.27 470.636H1063.06V477.921C1063.55 477.239 1064.27 476.686 1065.23 476.26C1066.19 475.812 1067.22 475.589 1068.33 475.589C1070.1 475.589 1071.54 475.961 1072.64 476.707C1073.75 477.431 1074.54 478.379 1075.01 479.551C1075.5 480.701 1075.74 481.926 1075.74 483.225C1075.74 484.759 1075.46 486.132 1074.88 487.347C1074.31 488.561 1073.42 489.519 1072.23 490.222C1071.06 490.925 1069.6 491.277 1067.85 491.277C1065.62 491.277 1063.81 490.701 1062.42 489.551C1061.04 488.401 1060.19 486.867 1059.9 484.95H1062.74C1063.02 486.164 1063.6 487.112 1064.5 487.794C1065.39 488.476 1066.52 488.816 1067.88 488.816C1069.57 488.816 1070.83 488.316 1071.69 487.315C1072.54 486.292 1072.96 484.95 1072.96 483.289C1072.96 481.627 1072.54 480.349 1071.69 479.455C1070.83 478.539 1069.58 478.081 1067.92 478.081C1066.79 478.081 1065.8 478.358 1064.94 478.912C1064.11 479.444 1063.51 480.179 1063.12 481.116H1060.38V468.08H1074.27V470.636ZM1079.26 488.88C1081.96 486.708 1084.08 484.929 1085.61 483.544C1087.15 482.139 1088.44 480.679 1089.48 479.167C1090.55 477.633 1091.08 476.132 1091.08 474.662C1091.08 473.278 1090.74 472.191 1090.06 471.403C1089.4 470.594 1088.32 470.189 1086.83 470.189C1085.38 470.189 1084.25 470.647 1083.44 471.563C1082.65 472.457 1082.23 473.661 1082.16 475.173H1079.35C1079.44 472.788 1080.16 470.945 1081.52 469.646C1082.89 468.346 1084.65 467.697 1086.8 467.697C1088.99 467.697 1090.73 468.304 1092 469.518C1093.3 470.732 1093.95 472.404 1093.95 474.534C1093.95 476.302 1093.42 478.028 1092.36 479.71C1091.31 481.372 1090.12 482.842 1088.78 484.12C1087.44 485.376 1085.72 486.846 1083.63 488.529H1094.62V490.957H1079.26V488.88ZM1112.2 470.381L1103.32 491.213H1100.38L1109.39 470.668H1097.06V468.176H1112.2V470.381Z" fill="#1C85E8"/>
<path opacity="0.7" d="M244.867 860.04H357.764C359.979 860.04 362.172 859.604 364.219 858.756C366.265 857.909 368.125 856.666 369.691 855.1C371.257 853.534 372.499 851.675 373.347 849.628C374.195 847.582 374.631 845.388 374.631 843.174V808.246C374.631 806.031 374.195 803.838 373.347 801.791C372.499 799.745 371.257 797.885 369.691 796.319C368.125 794.753 366.265 793.511 364.219 792.663C362.172 791.815 359.979 791.379 357.764 791.379H317.687L305.86 779.552C304.753 778.445 303.251 777.823 301.685 777.823C300.12 777.823 298.618 778.445 297.511 779.552L285.684 791.379H244.867C240.393 791.379 236.103 793.156 232.94 796.319C229.777 799.482 228 803.772 228 808.246V843.174C228 847.647 229.777 851.937 232.94 855.1C236.103 858.263 240.393 860.04 244.867 860.04Z" fill="#1C85E8"/>
<path d="M298.052 834.295C300.092 832.657 301.689 831.316 302.846 830.272C304.002 829.212 304.974 828.112 305.761 826.972C306.564 825.815 306.965 824.683 306.965 823.575C306.965 822.531 306.708 821.712 306.194 821.118C305.696 820.508 304.885 820.202 303.761 820.202C302.669 820.202 301.818 820.548 301.208 821.238C300.614 821.913 300.292 822.82 300.244 823.96H298.124C298.189 822.162 298.735 820.773 299.762 819.793C300.79 818.813 302.115 818.324 303.737 818.324C305.391 818.324 306.7 818.781 307.664 819.697C308.643 820.612 309.133 821.873 309.133 823.479C309.133 824.812 308.732 826.112 307.929 827.381C307.142 828.634 306.242 829.742 305.231 830.705C304.219 831.653 302.926 832.761 301.352 834.03H309.639V835.86H298.052V834.295ZM311.643 832.175V830.513L320.098 818.805H322.724V830.272H325.133V832.175H322.724V836.053H320.556V832.175H311.643ZM320.652 821.094L314.172 830.272H320.652V821.094ZM327.275 823.021C327.387 821.543 327.957 820.387 328.985 819.552C330.013 818.717 331.346 818.299 332.984 818.299C334.076 818.299 335.015 818.5 335.802 818.902C336.605 819.287 337.207 819.817 337.609 820.492C338.026 821.166 338.235 821.929 338.235 822.78C338.235 823.776 337.946 824.635 337.368 825.358C336.806 826.08 336.067 826.546 335.152 826.755V826.875C336.196 827.132 337.023 827.638 337.633 828.393C338.243 829.148 338.548 830.135 338.548 831.356C338.548 832.271 338.339 833.098 337.922 833.837C337.504 834.56 336.878 835.13 336.043 835.547C335.208 835.965 334.204 836.174 333.032 836.174C331.33 836.174 329.932 835.732 328.84 834.849C327.748 833.949 327.138 832.681 327.01 831.043H329.129C329.242 832.006 329.635 832.793 330.31 833.403C330.984 834.014 331.884 834.319 333.008 834.319C334.132 834.319 334.983 834.03 335.561 833.451C336.155 832.857 336.453 832.094 336.453 831.163C336.453 829.959 336.051 829.091 335.248 828.561C334.445 828.031 333.233 827.766 331.611 827.766H331.057V825.936H331.635C333.112 825.92 334.228 825.679 334.983 825.213C335.738 824.731 336.115 823.992 336.115 822.997C336.115 822.146 335.834 821.463 335.272 820.949C334.726 820.435 333.939 820.178 332.911 820.178C331.916 820.178 331.113 820.435 330.502 820.949C329.892 821.463 329.531 822.154 329.418 823.021H327.275ZM351.216 822.78C350.863 820.997 349.763 820.106 347.916 820.106C346.486 820.106 345.418 820.66 344.712 821.768C344.005 822.86 343.66 824.667 343.676 827.188C344.045 826.353 344.656 825.703 345.507 825.237C346.374 824.755 347.338 824.514 348.397 824.514C350.052 824.514 351.368 825.028 352.348 826.056C353.344 827.084 353.842 828.505 353.842 830.32C353.842 831.412 353.625 832.392 353.191 833.259C352.774 834.126 352.131 834.817 351.264 835.33C350.413 835.844 349.377 836.101 348.157 836.101C346.502 836.101 345.21 835.732 344.278 834.993C343.347 834.254 342.696 833.235 342.327 831.934C341.958 830.633 341.773 829.027 341.773 827.116C341.773 821.222 343.829 818.275 347.94 818.275C349.514 818.275 350.75 818.701 351.65 819.552C352.549 820.403 353.079 821.479 353.239 822.78H351.216ZM347.94 826.369C347.249 826.369 346.599 826.514 345.989 826.803C345.378 827.076 344.88 827.501 344.495 828.08C344.126 828.642 343.941 829.332 343.941 830.151C343.941 831.372 344.294 832.367 345.001 833.138C345.708 833.893 346.719 834.271 348.036 834.271C349.16 834.271 350.052 833.925 350.71 833.235C351.385 832.528 351.722 831.581 351.722 830.392C351.722 829.14 351.401 828.16 350.758 827.453C350.116 826.731 349.176 826.369 347.94 826.369Z" fill="white"/>
<path d="M845.781 830.977C845.781 830.977 881.785 823.439 898.247 805.975C920.058 782.836 925.089 755.087 948.986 752.233C986.489 747.755 1008.23 880.161 1053.76 862.247C1099.29 844.333 1088.53 745.456 1115.62 728.697C1134.28 717.152 1143.98 751.487 1170.11 742.53" stroke="white" stroke-width="10.368" stroke-miterlimit="10" stroke-linecap="round"/>
<path opacity="0.7" d="M491.457 722.33C518.371 730.014 581.335 743.746 663.84 734.274C665.166 734.086 666.517 734.188 667.799 734.574C669.081 734.959 670.264 735.62 671.265 736.508C672.266 737.397 673.062 738.493 673.597 739.721C674.132 740.948 674.394 742.277 674.364 743.616V870.949C674.303 873.759 673.253 876.457 671.399 878.568C669.545 880.679 667.005 882.069 664.227 882.492C634.851 886.508 547.627 895.099 482.627 867.035C480.964 866.299 479.556 865.088 478.581 863.552C477.606 862.017 477.109 860.227 477.151 858.409V733.592C477.151 726.209 484.583 720.367 491.457 722.33Z" fill="url(#paint2_linear)"/>
<path d="M250.053 839.577H253.751C254.438 839.576 255.096 839.303 255.581 838.818C256.067 838.333 256.34 837.674 256.341 836.988V819.973C256.34 819.287 256.067 818.629 255.581 818.143C255.096 817.658 254.438 817.385 253.751 817.384H250.053C249.366 817.385 248.708 817.658 248.223 818.143C247.737 818.629 247.464 819.287 247.463 819.973V836.988C247.464 837.674 247.737 838.333 248.223 838.818C248.708 839.303 249.366 839.576 250.053 839.577Z" fill="white"/>
<path d="M266.373 806.657C264.894 806.657 264.154 807.397 264.154 811.096C264.154 814.612 260.75 817.44 258.56 818.898V837.226C260.929 838.323 265.67 839.947 273.031 839.947H275.398C276.794 839.948 278.144 839.456 279.211 838.557C280.278 837.658 280.993 836.41 281.228 835.035L282.885 825.418C283.032 824.568 282.992 823.697 282.766 822.865C282.541 822.032 282.137 821.259 281.582 820.599C281.026 819.94 280.333 819.409 279.552 819.046C278.77 818.682 277.918 818.494 277.056 818.494H270.072C270.858 816.622 271.237 814.605 271.182 812.576C271.182 808.137 267.853 806.658 266.373 806.658V806.657Z" fill="white"/>
<path d="M373.281 689.646C353.657 682.727 337.749 661.209 337.749 641.585C337.749 621.96 353.657 611.661 373.281 618.581L373.281 618.581V595.773L373.281 595.773C341.578 584.594 315.878 601.233 315.878 632.936C315.878 664.639 341.578 699.401 373.281 710.58C403.645 721.286 428.486 706.466 430.532 677.343L408.675 669.636C407.13 687.29 391.879 696.204 373.281 689.646Z" fill="white"/>
<path d="M380.57 591.055V613.862C400.194 620.782 416.102 642.3 416.102 661.924C416.102 662.95 416.049 663.944 415.964 664.918L437.82 672.625C437.91 671.34 437.973 670.038 437.973 668.698C437.973 636.995 412.272 602.233 380.57 591.055Z" fill="#1C85E8"/>
<path d="M373.281 689.646V710.58" stroke="white" stroke-width="2.42819" stroke-miterlimit="10"/>
<path d="M337.749 641.585L315.878 633.873" stroke="white" stroke-width="2.42819" stroke-miterlimit="10"/>
<path d="M465.337 644.845L505.92 652.557" stroke="white" stroke-width="10.368" stroke-miterlimit="10" stroke-linecap="round"/>
<path opacity="0.4" d="M465.337 708.434L505.92 716.146" stroke="white" stroke-width="10.368" stroke-miterlimit="10" stroke-linecap="round"/>
<path d="M465.337 677.287L523.642 688.366" stroke="white" stroke-width="10.368" stroke-miterlimit="10" stroke-linecap="round"/>
<g opacity="0.7">
<path d="M1197.27 99.3284C1162.1 125.15 1097.77 190.264 957.366 211.898C946.617 213.554 942.592 221.202 942.592 229.653V407.673C942.652 410.143 943.561 412.517 945.167 414.395C946.772 416.273 948.976 417.541 951.407 417.984C986.822 423.946 1123.21 389.155 1204.77 319.11C1212.56 312.42 1212.56 301.197 1212.56 298.865V108.21C1212.56 100.3 1203.29 94.9091 1197.27 99.3284Z" fill="url(#paint3_linear)"/>
</g>
<path d="M961.156 243.621V353.73C961.155 354.689 961.37 355.635 961.784 356.499C962.198 357.363 962.802 358.123 963.549 358.723C964.297 359.322 965.17 359.746 966.103 359.963C967.037 360.179 968.007 360.183 968.943 359.974C988.999 355.482 1043.25 342.495 1077.51 326.332C1078.61 325.814 1079.53 324.995 1080.18 323.971C1080.82 322.947 1081.17 321.76 1081.16 320.549V213.321C1081.17 212.249 1080.9 211.194 1080.38 210.252C1079.87 209.311 1079.13 208.515 1078.22 207.936C1077.32 207.357 1076.29 207.014 1075.22 206.939C1074.15 206.864 1073.08 207.059 1072.1 207.507C1053.01 216.3 1007.13 235.508 967.225 237.236C965.586 237.314 964.04 238.022 962.91 239.211C961.779 240.4 961.151 241.98 961.156 243.621Z" fill="white"/>
<path d="M966.115 336.006V347.587C966.115 348.464 966.317 349.329 966.706 350.115C967.095 350.901 967.659 351.587 968.356 352.119C969.053 352.651 969.864 353.015 970.724 353.182C971.585 353.35 972.473 353.317 973.318 353.086L1033.33 336.679C1034.28 336.421 1035.14 335.923 1035.84 335.233C1036.54 334.543 1037.04 333.686 1037.31 332.742C1037.58 331.799 1037.6 330.803 1037.37 329.85C1037.14 328.896 1036.67 328.018 1036.01 327.3L1003.83 292.683C1003.25 292.062 1002.55 291.577 1001.76 291.265C1000.97 290.952 1000.12 290.819 999.274 290.876C998.428 290.933 997.605 291.178 996.866 291.593C996.126 292.009 995.488 292.584 994.999 293.277L967.158 332.718C966.479 333.68 966.115 334.828 966.115 336.006Z" fill="#1C85E8"/>
<path opacity="0.6" d="M1027.3 308.843L1045.31 327.953C1045.89 328.568 1046.64 328.996 1047.46 329.181C1048.28 329.367 1049.14 329.302 1049.93 328.995C1055.25 326.917 1067.2 322.219 1073.25 319.617C1074.01 319.289 1074.65 318.747 1075.11 318.056C1075.56 317.365 1075.8 316.556 1075.8 315.729V297.823C1075.8 296.909 1075.5 296.02 1074.96 295.289L1049.64 261.371C1049.18 260.762 1048.57 260.286 1047.87 259.994C1047.17 259.702 1046.4 259.604 1045.65 259.71C1044.9 259.817 1044.19 260.123 1043.59 260.598C1043 261.073 1042.55 261.698 1042.28 262.409L1026.42 304.442C1026.14 305.185 1026.07 305.991 1026.23 306.769C1026.38 307.547 1026.76 308.265 1027.3 308.843Z" fill="#1C85E8"/>
<path d="M1011.49 279.004C1016.83 279.004 1021.16 274.676 1021.16 269.336C1021.16 263.996 1016.83 259.668 1011.49 259.668C1006.15 259.668 1001.82 263.996 1001.82 269.336C1001.82 274.676 1006.15 279.004 1011.49 279.004Z" fill="#FEBB94"/>
<path d="M1109.04 203.914C1133.85 191.332 1157.73 176.987 1180.49 160.991" stroke="white" stroke-width="10.368" stroke-miterlimit="10" stroke-linecap="round"/>
<path d="M1109.04 245.679C1109.04 245.679 1125.3 237.754 1147.61 224.218" stroke="white" stroke-width="10.368" stroke-miterlimit="10" stroke-linecap="round"/>
<path d="M1109.04 286.512C1133.85 273.929 1157.73 259.585 1180.49 243.589" stroke="white" stroke-width="10.368" stroke-miterlimit="10" stroke-linecap="round"/>
<path d="M1109.04 332.356C1133.85 319.773 1157.73 305.429 1180.49 289.433" stroke="white" stroke-width="10.368" stroke-miterlimit="10" stroke-linecap="round"/>
<path d="M974.945 391.729C979.822 391.729 983.776 387.776 983.776 382.899C983.776 378.022 979.822 374.068 974.945 374.068C970.068 374.068 966.115 378.022 966.115 382.899C966.115 387.776 970.068 391.729 974.945 391.729Z" fill="white"/>
<path d="M1026.15 377.442C1031.02 377.442 1034.98 373.489 1034.98 368.612C1034.98 363.735 1031.02 359.782 1026.15 359.782C1021.27 359.782 1017.32 363.735 1017.32 368.612C1017.32 373.489 1021.27 377.442 1026.15 377.442Z" fill="white"/>
<path d="M1072.33 361.668C1077.21 361.668 1081.16 357.714 1081.16 352.837C1081.16 347.96 1077.21 344.007 1072.33 344.007C1067.46 344.007 1063.5 347.96 1063.5 352.837C1063.5 357.714 1067.46 361.668 1072.33 361.668Z" fill="white"/>
</g>
<defs>
<linearGradient id="paint0_linear" x1="645.676" y1="-685.866" x2="1005.7" y2="1546.48" gradientUnits="userSpaceOnUse">
<stop stop-color="white"/>
<stop offset="1" stop-color="#94B9FF"/>
</linearGradient>
<linearGradient id="paint1_linear" x1="823.285" y1="546.316" x2="847.901" y2="886.944" gradientUnits="userSpaceOnUse">
<stop stop-color="white"/>
<stop offset="1" stop-color="#94B9FF"/>
</linearGradient>
<linearGradient id="paint2_linear" x1="570.848" y1="721.554" x2="602.688" y2="1072.6" gradientUnits="userSpaceOnUse">
<stop stop-color="white"/>
<stop offset="1" stop-color="#94B9FF"/>
</linearGradient>
<linearGradient id="paint3_linear" x1="1045.02" y1="-302.274" x2="1247.39" y2="753.305" gradientUnits="userSpaceOnUse">
<stop stop-color="white"/>
<stop offset="1" stop-color="#94B9FF"/>
</linearGradient>
<clipPath id="clip0">
<rect width="984.556" height="865.511" fill="white" transform="translate(228 79)"/>
</clipPath>
</defs>
</svg>
